<?xml version="1.0" encoding="UTF-8" standalone="no"?><!DOCTYPE svg PUBLIC "-//W3C//DTD SVG 1.1//EN" "http://www.w3.org/Graphics/SVG/1.1/DTD/svg11.dtd"><svg width="100%" height="100%" viewBox="0 0 3346 838" version="1.1" xmlns="http://www.w3.org/2000/svg" xmlns:xlink="http://www.w3.org/1999/xlink" xml:space="preserve" xmlns:serif="http://www.serif.com/" style="fill-rule:evenodd;clip-rule:evenodd;stroke-linejoin:round;stroke-miterlimit:2;"><path d="M1355.08,727.167c-4.483,-0.021 -8.775,-1.809 -11.95,-4.975c-3.175,-3.167 -4.975,-7.459 -5.008,-11.942l0,-344.667c0.025,-4.487 1.817,-8.791 4.992,-11.966c3.175,-3.175 7.479,-4.967 11.966,-4.992l93.542,0c83.125,0 126.917,34.417 126.917,114.875c-0,74.375 -30.084,120.375 -120.375,120.375l-51,0l-0,126.333c-0.029,4.484 -1.829,8.775 -5.004,11.942c-3.175,3.167 -7.471,4.954 -11.955,4.975l-32.125,0.042Zm49.084,-198.042l47.041,0c37.75,0 55.292,-14.208 55.292,-61.25c0,-48.708 -16.458,-63.458 -54.75,-63.458l-47.583,-0l-0,124.708Z" style="fill:#fafafa;fill-rule:nonzero;"/><path d="M1681.71,733.167c-47.041,-0 -59.041,-23.5 -59.041,-77.667l-0,-309.625c0.025,-4.487 1.816,-8.792 4.991,-11.967c3.175,-3.175 7.479,-4.966 11.967,-4.991l28.417,-0c4.491,0.025 8.791,1.816 11.97,4.991c3.175,3.175 4.967,7.48 4.988,11.967l-0,317.292c-0,12.041 3.833,18.041 11.5,20.208c10.917,3.333 18.042,6.583 19.667,17.542l1.666,11.458c0.359,2.054 0.3,4.158 -0.175,6.188c-0.471,2.029 -1.341,3.941 -2.566,5.629c-1.225,1.683 -2.771,3.108 -4.554,4.183c-1.784,1.079 -3.767,1.788 -5.83,2.083c-7.545,1.734 -15.254,2.642 -23,2.709Z" style="fill:#fafafa;fill-rule:nonzero;"/><path d="M1942.17,822.375c-121.959,0 -194.167,-68.958 -194.167,-205.167c-0,-136.208 83.333,-239.583 221.542,-239.583c122.541,0 190.375,74.375 190.375,193.625c-0,112.125 -43.75,161.917 -108.334,161.917c-46.541,-0 -65.666,-22.417 -72.208,-54.709c-19.708,24.084 -45.417,46.5 -78.25,46.5c-31.167,0 -54.167,-22.958 -54.167,-76.583c0.346,-19.863 2.763,-39.633 7.209,-59c16.958,-82.042 49.791,-111.583 99.041,-111.583c25.709,-0 43.167,14.75 52.5,24.041l0.542,-2.166c0.908,-4.696 3.429,-8.934 7.125,-11.975c3.696,-3.042 8.337,-4.7 13.125,-4.692l21.875,-0c2.054,0.012 4.088,0.479 5.946,1.362c1.858,0.888 3.496,2.171 4.8,3.763c1.304,1.592 2.246,3.45 2.75,5.446c0.504,1.996 0.562,4.075 0.171,6.096l-30.667,143.875c-1.442,6.091 -2.183,12.325 -2.208,18.583c-0,19.708 9.875,27.917 22.958,27.917c33.333,-0 55.292,-32.25 55.292,-118.709c-0,-100.625 -38.292,-150 -140.042,-150c-110.5,0 -165.25,80.959 -165.25,195.834c-0,117.083 45.458,160.833 139.5,160.833c20.729,0.292 41.387,-2.517 61.292,-8.333c4.275,-1.309 8.895,-0.9 12.879,1.137c3.979,2.038 7.012,5.546 8.454,9.779l2.75,8.75c0.738,2.084 1.058,4.296 0.938,6.505c-0.126,2.208 -0.684,4.37 -1.651,6.358c-0.966,1.987 -2.316,3.767 -3.975,5.229c-1.662,1.462 -3.595,2.579 -5.687,3.283c-24.046,7.809 -49.179,11.746 -74.458,11.667Zm-19.667,-142.25c18.583,-0 36.125,-15.875 51.458,-31.208l24.042,-113.709c-8.333,-7.083 -19.125,-15.875 -35,-15.875c-27.375,0 -37.75,16.417 -50.333,76.584c-4.667,18.65 -7.459,37.716 -8.334,56.916c0.125,20.167 6.709,27.292 18.167,27.292Z" style="fill:#fafafa;fill-rule:nonzero;"/><path d="M2226.71,727.167c-4.483,-0.021 -8.779,-1.809 -11.954,-4.975c-3.175,-3.167 -4.971,-7.459 -5.004,-11.942l0,-242.917c0.021,-4.487 1.817,-8.791 4.992,-11.966c3.175,-3.175 7.475,-4.967 11.966,-4.992l15.875,0c4.792,0.046 9.438,1.679 13.205,4.642c3.77,2.962 6.45,7.087 7.629,11.733l2.708,13.667c22.458,-21.834 47.625,-37.167 81.542,-37.167c43.75,0 69.458,20.25 69.458,72.208l0,194.75c-0.021,4.488 -1.817,8.784 -4.996,11.955c-3.175,3.166 -7.475,4.954 -11.962,4.962l-28.5,0c-4.484,-0.021 -8.779,-1.808 -11.954,-4.975c-3.175,-3.167 -4.971,-7.458 -5.005,-11.942l0,-178.875c0,-29.166 -9.291,-36.125 -29.541,-36.125c-20.25,0 -37.167,10.417 -53.042,24.625l0,190.375c-0.033,4.484 -1.833,8.775 -5.008,11.942c-3.171,3.167 -7.467,4.954 -11.95,4.975l-28.459,0.042Z" style="fill:#fafafa;fill-rule:nonzero;"/><path d="M2472.96,498.542c-4.491,-0.034 -8.791,-1.838 -11.966,-5.017c-3.175,-3.183 -4.967,-7.488 -4.992,-11.983l0,-14.209c0.025,-4.491 1.817,-8.791 4.992,-11.966c3.175,-3.175 7.479,-4.971 11.966,-4.992l13.125,0l0,-52.667c-0.016,-4.745 1.609,-9.354 4.6,-13.037c2.992,-3.683 7.167,-6.217 11.817,-7.171l29.167,-5.5c2.008,-0.346 4.062,-0.25 6.025,0.279c1.966,0.529 3.791,1.479 5.354,2.784c1.558,1.304 2.821,2.929 3.687,4.766c0.871,1.842 1.334,3.846 1.35,5.879l0,64.667l37.167,0c4.496,0.021 8.8,1.813 11.983,4.988c3.184,3.175 4.988,7.474 5.017,11.97l0,14.209c-0.021,4.5 -1.817,8.812 -5,11.995c-3.183,3.184 -7.496,4.984 -12,5.005l-37.333,-0l-0,160.25c-0,20.833 7.083,27.333 21.333,27.333c4.988,-0.108 9.942,-0.837 14.75,-2.167c1.654,-0.504 3.396,-0.662 5.113,-0.462c1.716,0.2 3.375,0.754 4.866,1.625c1.492,0.875 2.784,2.046 3.8,3.446c1.017,1.4 1.729,2.995 2.096,4.683l3.292,14.25c1.058,4.55 0.354,9.329 -1.963,13.388c-2.316,4.054 -6.079,7.087 -10.537,8.487c-10.429,3.292 -21.309,4.95 -32.25,4.917c-42.667,-0 -72.209,-15.917 -72.209,-64l0,-171.75l-13.25,-0Z" style="fill:#fafafa;fill-rule:nonzero;"/><path d="M2687.71,727.167c-3.183,-0.034 -6.225,-1.313 -8.479,-3.563c-2.25,-2.25 -3.529,-5.296 -3.562,-8.479l-0,-351.75c0.046,-3.175 1.329,-6.208 3.579,-8.45c2.25,-2.246 5.287,-3.517 8.462,-3.55l14.792,0c3.633,0.067 7.179,1.117 10.258,3.042c3.084,1.921 5.584,4.641 7.242,7.875l118.167,242.333c13.166,26.092 24.312,53.158 33.333,80.958l1.083,0c-3.079,-30.358 -4.471,-60.862 -4.166,-91.375l-0,-230.833c0.033,-3.179 1.312,-6.221 3.566,-8.462c2.255,-2.246 5.296,-3.517 8.475,-3.538l8.334,0c3.175,0.033 6.208,1.308 8.45,3.55c2.241,2.246 3.516,5.279 3.55,8.45l-0,351.75c-0.021,3.179 -1.292,6.225 -3.538,8.475c-2.241,2.254 -5.283,3.533 -8.462,3.567l-14.25,-0c-3.629,-0.071 -7.175,-1.125 -10.254,-3.046c-3.08,-1.921 -5.584,-4.642 -7.246,-7.871l-113.75,-231.417c-15.071,-29.379 -27.792,-59.904 -38.042,-91.291l-1.083,-0c3.033,33.829 4.312,67.791 3.833,101.75l0,219.916c-0.021,3.188 -1.296,6.238 -3.55,8.492c-2.254,2.254 -5.304,3.529 -8.492,3.55l-8.25,-0.083Z" style="fill:#8eb533;fill-rule:nonzero;"/><path d="M3005.54,601.333c1.083,79.167 22.416,103.417 71.625,103.417c19.675,0.404 38.987,-5.333 55.25,-16.417c2.716,-1.875 6.046,-2.637 9.308,-2.133c3.263,0.5 6.208,2.233 8.233,4.842l3.25,3.833c0.946,1.242 1.625,2.663 2,4.175c0.375,1.517 0.434,3.092 0.175,4.629c-0.254,1.538 -0.825,3.009 -1.675,4.317c-0.845,1.308 -1.954,2.433 -3.25,3.296c-19.666,13.666 -42.125,21.333 -73.291,21.333c-62.5,0 -106.125,-35 -106.125,-135.667c-0,-99.541 42.125,-136.75 100,-136.75c60.708,0 93.541,38.334 93.541,127.459l0,7.125c0.046,0.825 -0.075,1.654 -0.354,2.429c-0.279,0.779 -0.712,1.496 -1.271,2.104c-0.558,0.608 -1.233,1.1 -1.983,1.446c-0.754,0.346 -1.567,0.537 -2.392,0.562l-153.041,0Zm0.541,-25.666l124.709,-0c-0,-66.667 -19.709,-88.667 -60.167,-88.667c-36.667,0 -60.75,20.292 -64.542,88.667Z" style="fill:#8eb533;fill-rule:nonzero;"/><path d="M3235.79,492.5l-19.709,0c-3.187,-0.042 -6.233,-1.329 -8.483,-3.587c-2.25,-2.259 -3.529,-5.309 -3.558,-8.496l-0,-2.667c0.029,-3.188 1.308,-6.233 3.558,-8.492c2.25,-2.258 5.296,-3.546 8.483,-3.591l19.709,-0l-0,-56.875c0.004,-3.384 1.141,-6.671 3.221,-9.342c2.083,-2.671 4.995,-4.575 8.279,-5.408l9.291,-2.209c1.38,-0.237 2.792,-0.179 4.146,0.175c1.354,0.35 2.621,0.988 3.709,1.867c1.087,0.879 1.975,1.983 2.604,3.233c0.629,1.25 0.983,2.621 1.041,4.017l0,64.542l42.625,-0c3.192,0.033 6.25,1.316 8.509,3.575c2.258,2.262 3.541,5.316 3.575,8.508l-0,2.667c-0.034,3.196 -1.317,6.25 -3.575,8.508c-2.259,2.258 -5.317,3.546 -8.509,3.575l-42.625,0l0,189.25c0,15.875 7.084,24.083 21.875,24.083c6.705,0.171 13.38,-0.945 19.667,-3.291c3.054,-0.875 6.333,-0.575 9.179,0.841c2.846,1.421 5.059,3.855 6.196,6.825c0.658,1.58 0.992,3.271 0.992,4.98c-0.005,1.708 -0.35,3.4 -1.013,4.975c-0.662,1.57 -1.633,3 -2.85,4.195c-1.221,1.196 -2.666,2.138 -4.254,2.767c-9.392,3.75 -19.433,5.604 -29.542,5.458c-29.5,0 -52.5,-13.666 -52.5,-49.25l-0.041,-190.833Z" style="fill:#8eb533;fill-rule:nonzero;"/><path d="M1224.51,537.738c-257.225,-139.563 -533.467,-16.921 -584.167,205.741c-0,0 452.162,-65.458 584.167,-205.742Z" style="fill:#8eb533;fill-rule:nonzero;"/><path d="M792.513,20.833c-80.342,32.041 -162.663,139.682 -205.684,281.043c-37.079,121.861 -36,238.861 -3.658,314.524c14.458,-48 28.737,-88.621 49.679,-128.221c9,-17.042 22.379,-8.879 22.021,4.679c-0.3,11.521 -3,33.363 -13.2,81.421c-3.479,16.079 -7.8,37.2 -12.6,61.321c70.679,-43.142 139.442,-141.663 177.421,-266.704c43.079,-141.481 34.679,-276.722 -14.279,-348.003" style="fill:#8eb533;fill-rule:nonzero;"/><path d="M544.583,285.679c2.938,-9.96 6,-19.62 9.659,-29.28c-90.779,-106.861 -201.421,-170.462 -284.342,-170.102c-18.721,84.361 24,213.003 116.7,328.145c38.962,49.008 85.2,91.762 137.104,126.779c-13.2,-71.4 -7.621,-162.063 20.879,-255.542Z" style="fill:#8eb533;fill-rule:nonzero;"/><path d="M12.5,537.742c257.223,-139.563 533.467,-16.921 584.167,205.8c-0,-0 -452.166,-65.521 -584.167,-205.8Z" style="fill:#8eb533;fill-rule:nonzero;"/><path d="M1367.17,250c4.666,0 8.666,-4 8.666,-8.667l0,-81.333l40.334,0c45.666,0 66.333,-26.333 66.333,-71c0,-44 -23.333,-68.667 -70,-68.667l-58.667,0c-4.666,0 -8.666,4 -8.666,8.667l-0,212.333c-0,4.667 4,8.667 8.666,8.667l13.334,0Zm8.666,-203.333l35,-0c28,-0 39.334,11.333 39.334,44c-0,32.333 -12.334,43.333 -38,43.333l-36.334,0l0,-87.333Zm257.275,119.666c0,-62.666 -28,-87.666 -68.666,-87.666c-40.667,-0 -67.667,25 -67.667,87.666c-0,62.667 27.667,88 68.333,88c40.667,0 68,-25.333 68,-88Zm-105.666,0c-0,-51.666 12,-65 37.333,-65c25.333,0 37.667,13.667 37.667,65.334c-0,51.333 -12,65 -37.334,65c-25.333,-0 -37.666,-14 -37.666,-65.334Zm181.529,83.667c5,0 9.666,-3.667 10.666,-8.333l20.667,-80.667c3.667,-14 9.333,-45.333 9.667,-48.333l0.333,-0c2,10 6,32.666 10,48.333l20.667,80.667c1.333,4.666 6,8.333 11,8.333l11.333,0c5,0 9.667,-3.333 11,-8.333l39.333,-150.334c1.334,-4 -2,-8.333 -6.333,-8.333l-11.667,0c-5.004,0 -9.666,3.667 -10.666,8.333l-18.667,78.667c-3.337,14.333 -8,41.333 -8.667,46l-0.666,0c-0.667,-4 -5,-29.333 -9.334,-47l-19.333,-77.667c-1,-4.666 -5.667,-8.333 -10.667,-8.333l-12.666,0c-5,0 -9.667,3.667 -10.667,8.333l-20.667,80.334c-2.666,10.333 -6.333,30.666 -8,44.333l-0.666,0c-1.667,-12 -5,-33 -8.334,-47.333l-18.333,-77.334c-1,-4.666 -5.667,-8.333 -10.667,-8.333l-13.333,0c-4.333,0 -7.667,4.333 -6.333,8.333l38.666,150.334c1.334,4.666 6,8.333 11,8.333l11.334,0Zm276.421,-9.667c4,-2.666 4.666,-8.333 2,-12l-5.334,-7c-2.666,-3.666 -8.333,-4.666 -12.333,-1.666c-8.667,6 -18,10.333 -32.333,10.333c-27.667,0 -37.667,-11.333 -38.334,-57l91.667,-0c3,-0 5.333,-2.333 5.333,-5.333l0,-6c0,-60.334 -22.666,-83 -62.333,-83c-39.333,-0 -65.333,24.333 -65.333,87.666c-0,62.667 24.666,88 68.333,88c21,0 35,-4.333 48.667,-14Zm-19.667,-89l-66.333,0c2.333,-40 14.333,-50 33.666,-50c24,0 32.667,11.667 32.667,50Zm81.396,98.667c4.667,0 8.667,-4 8.667,-8.667l-0,-114c12.333,-11.333 22.666,-17 38,-17c1.666,0 3.666,0 5.333,0.334c2.667,0.333 5,-1.667 5.333,-4l2.334,-23.334c0.333,-1.333 -1,-2.666 -2.334,-3c-1,-0.333 -2.333,-0.333 -3.333,-0.333c-19.333,0 -34.667,11.333 -47,26.667l-3,-15c-1,-5 -5.333,-8.667 -10.333,-8.667l-5,0c-4.667,0 -8.667,4 -8.667,8.667l-0,149.666c-0,4.667 4,8.667 8.667,8.667l11.333,0Zm188.467,-9.667c3.999,-2.666 4.666,-8.333 1.999,-12l-5.333,-7c-2.666,-3.666 -8.333,-4.666 -12.333,-1.666c-8.667,6 -18,10.333 -32.333,10.333c-27.667,0 -37.667,-11.333 -38.334,-57l91.667,-0c3,-0 5.333,-2.333 5.333,-5.333l0,-6c0,-60.334 -22.666,-83 -62.333,-83c-39.333,-0 -65.333,24.333 -65.333,87.666c-0,62.667 24.666,88 68.333,88c21,0 35,-4.333 48.667,-14Zm-19.667,-89l-66.333,0c2.333,-40 14.333,-50 33.666,-50c24,0 32.667,11.667 32.667,50Zm155.729,81.334l2.333,9c1.334,5 6,8.333 11,8.333l5,0c4.667,0 8.667,-4 8.667,-8.667l0,-224c0,-4.666 -4,-8.666 -8.667,-8.666l-11.333,-0c-4.667,-0 -8.667,4 -8.667,8.666l0,81.667c-10.666,-10.333 -26,-20.333 -44.333,-20.333c-39,-0 -57.333,26.333 -57.333,89c-0,68.666 25,86.666 57,86.666c17.666,0 33.666,-7.666 46.333,-21.666Zm-72.667,-67c0,-53.667 10.334,-62.334 34,-62.334c14,0 27.334,8.667 37,18l0,90.334c-12,11.333 -23.333,18 -39.666,18c-22.667,-0 -31.334,-10.334 -31.334,-64Zm336.4,-0.334c0,-68.666 -25,-86.666 -57,-86.666c-17.666,-0 -32.666,9 -44.666,21.666l-0,-83c-0,-4.666 -4,-8.666 -8.667,-8.666l-11.333,-0c-4.667,-0 -8.667,4 -8.667,8.666l0,224c0,4.667 4,8.667 8.667,8.667l5,0c5,0 9.666,-3.333 11,-8.333l2.333,-7.667c9.667,11 27.667,20.333 46,20.333c39,0 57.333,-26.333 57.333,-89Zm-101.666,48l-0,-90.333c12,-11.333 23.333,-19.667 39.666,-19.667c22.667,0 31.334,10.334 31.334,64c-0,53.667 -10.334,62.334 -34,62.334c-14,-0 -27.334,-7 -37,-16.334Zm199.346,42l52.666,-164c1.334,-4.333 -1.666,-8.333 -6,-8.333l-12.333,0c-5,0 -9.667,3.333 -11.333,8.333l-27,90c-5,16.334 -8,33.667 -10.334,45.667l-0.333,0c-2.333,-12.667 -6.333,-32.333 -10,-45.667l-25.667,-90c-1.333,-5 -6,-8.333 -11,-8.333l-14,0c-4.333,0 -7.333,4 -6,8.333l47.334,152.334c1.333,3.666 4.666,6.333 8.666,6.333l0.334,0c-8.334,27.667 -17,36.667 -37.667,43.333c-4.667,1.334 -7.333,6.334 -6,11l1.667,6.334c1.333,4.666 6,7.666 10.666,6.333c28.334,-6.667 41.334,-16.667 56.334,-61.667Z" style="fill:#fafafa;fill-rule:nonzero;"/></svg>