<?xml version="1.0" encoding="UTF-8" standalone="no"?><!DOCTYPE svg PUBLIC "-//W3C//DTD SVG 1.1//EN" "http://www.w3.org/Graphics/SVG/1.1/DTD/svg11.dtd"><svg width="100%" height="100%" viewBox="0 0 3350 830" version="1.1" xmlns="http://www.w3.org/2000/svg" xmlns:xlink="http://www.w3.org/1999/xlink" xml:space="preserve" xmlns:serif="http://www.serif.com/" style="fill-rule:evenodd;clip-rule:evenodd;stroke-linejoin:round;stroke-miterlimit:2;"><path d="M1359.25,723c-4.483,-0.021 -8.775,-1.808 -11.95,-4.975c-3.175,-3.167 -4.975,-7.458 -5.008,-11.942l-0,-344.666c0.025,-4.488 1.816,-8.792 4.991,-11.967c3.175,-3.175 7.48,-4.967 11.967,-4.992l93.542,0c83.125,0 126.916,34.417 126.916,114.875c0,74.375 -30.083,120.375 -120.375,120.375l-51,0l0,126.334c-0.029,4.483 -1.829,8.775 -5.004,11.941c-3.175,3.167 -7.471,4.955 -11.954,4.975l-32.125,0.042Zm49.083,-198.042l47.042,0c37.75,0 55.292,-14.208 55.292,-61.25c-0,-48.708 -16.459,-63.458 -54.75,-63.458l-47.584,0l0,124.708Z" style="fill:#362d31;fill-rule:nonzero;"/><path d="M1685.88,729c-47.042,0 -59.042,-23.5 -59.042,-77.667l0,-309.625c0.025,-4.487 1.817,-8.791 4.992,-11.966c3.175,-3.175 7.479,-4.967 11.967,-4.992l28.416,0c4.492,0.025 8.792,1.817 11.971,4.992c3.175,3.175 4.967,7.479 4.988,11.966l-0,317.292c-0,12.042 3.833,18.042 11.5,20.208c10.916,3.334 18.041,6.584 19.666,17.542l1.667,11.458c0.358,2.055 0.3,4.159 -0.175,6.188c-0.471,2.029 -1.342,3.942 -2.567,5.629c-1.225,1.683 -2.77,3.108 -4.554,4.183c-1.783,1.08 -3.766,1.788 -5.829,2.084c-7.546,1.733 -15.254,2.641 -23,2.708Z" style="fill:#362d31;fill-rule:nonzero;"/><path d="M1946.33,818.208c-121.958,0 -194.166,-68.958 -194.166,-205.166c-0,-136.209 83.333,-239.584 221.541,-239.584c122.542,0 190.375,74.375 190.375,193.625c0,112.125 -43.75,161.917 -108.333,161.917c-46.542,0 -65.667,-22.417 -72.208,-54.708c-19.709,24.083 -45.417,46.5 -78.25,46.5c-31.167,-0 -54.167,-22.959 -54.167,-76.584c0.346,-19.862 2.763,-39.633 7.208,-59c16.959,-82.041 49.792,-111.583 99.042,-111.583c25.708,0 43.167,14.75 52.5,24.042l0.542,-2.167c0.908,-4.696 3.429,-8.933 7.125,-11.975c3.696,-3.042 8.337,-4.7 13.125,-4.692l21.875,0c2.054,0.013 4.087,0.48 5.946,1.363c1.858,0.887 3.495,2.171 4.8,3.762c1.304,1.592 2.245,3.45 2.75,5.446c0.504,1.996 0.562,4.075 0.17,6.096l-30.666,143.875c-1.442,6.092 -2.184,12.325 -2.209,18.583c0,19.709 9.875,27.917 22.959,27.917c33.333,0 55.291,-32.25 55.291,-118.708c0,-100.625 -38.291,-150 -140.041,-150c-110.5,-0 -165.25,80.958 -165.25,195.833c-0,117.083 45.458,160.833 139.5,160.833c20.729,0.292 41.387,-2.516 61.291,-8.333c4.275,-1.308 8.896,-0.9 12.88,1.138c3.979,2.037 7.012,5.545 8.454,9.779l2.75,8.75c0.737,2.083 1.058,4.296 0.937,6.504c-0.125,2.208 -0.683,4.371 -1.65,6.358c-0.966,1.988 -2.316,3.767 -3.975,5.229c-1.662,1.463 -3.596,2.58 -5.687,3.284c-24.046,7.808 -49.179,11.746 -74.459,11.666Zm-19.666,-142.25c18.583,0 36.125,-15.875 51.458,-31.208l24.042,-113.708c-8.334,-7.084 -19.125,-15.875 -35,-15.875c-27.375,-0 -37.75,16.416 -50.334,76.583c-4.666,18.65 -7.458,37.717 -8.333,56.917c0.125,20.166 6.708,27.291 18.167,27.291Z" style="fill:#362d31;fill-rule:nonzero;"/><path d="M2230.88,723c-4.483,-0.021 -8.779,-1.808 -11.954,-4.975c-3.175,-3.167 -4.971,-7.458 -5.004,-11.942l-0,-242.916c0.021,-4.488 1.816,-8.792 4.991,-11.967c3.175,-3.175 7.475,-4.967 11.967,-4.992l15.875,0c4.792,0.046 9.438,1.68 13.204,4.642c3.771,2.963 6.45,7.088 7.629,11.733l2.709,13.667c22.458,-21.833 47.625,-37.167 81.541,-37.167c43.75,0 69.459,20.25 69.459,72.209l-0,194.75c-0.021,4.487 -1.817,8.783 -4.996,11.954c-3.175,3.167 -7.475,4.954 -11.963,4.962l-28.5,0c-4.483,-0.02 -8.779,-1.808 -11.954,-4.975c-3.175,-3.166 -4.971,-7.458 -5.004,-11.941l0,-178.875c0,-29.167 -9.292,-36.125 -29.542,-36.125c-20.25,-0 -37.166,10.416 -53.041,24.625l-0,190.375c-0.034,4.483 -1.834,8.775 -5.009,11.941c-3.17,3.167 -7.466,4.955 -11.95,4.975l-28.458,0.042Z" style="fill:#362d31;fill-rule:nonzero;"/><path d="M2477.12,494.375c-4.492,-0.033 -8.792,-1.837 -11.967,-5.017c-3.175,-3.183 -4.966,-7.487 -4.991,-11.983l-0,-14.208c0.025,-4.492 1.816,-8.792 4.991,-11.967c3.175,-3.175 7.48,-4.971 11.967,-4.992l13.125,0l0,-52.666c-0.017,-4.746 1.608,-9.354 4.6,-13.038c2.992,-3.683 7.167,-6.216 11.817,-7.171l29.166,-5.5c2.009,-0.345 4.063,-0.25 6.025,0.28c1.967,0.529 3.792,1.479 5.354,2.783c1.559,1.304 2.821,2.929 3.688,4.767c0.871,1.841 1.333,3.845 1.35,5.879l0,64.666l37.167,0c4.496,0.021 8.8,1.813 11.983,4.988c3.183,3.175 4.988,7.475 5.017,11.971l-0,14.208c-0.021,4.5 -1.817,8.813 -5,11.996c-3.184,3.183 -7.496,4.983 -12,5.004l-37.334,0l0,160.25c0,20.833 7.084,27.333 21.334,27.333c4.987,-0.108 9.941,-0.837 14.75,-2.166c1.654,-0.504 3.396,-0.663 5.112,-0.463c1.717,0.2 3.375,0.754 4.867,1.625c1.492,0.875 2.783,2.046 3.8,3.446c1.016,1.4 1.729,2.996 2.096,4.683l3.291,14.25c1.059,4.55 0.354,9.33 -1.962,13.388c-2.317,4.054 -6.079,7.087 -10.538,8.487c-10.429,3.292 -21.308,4.95 -32.25,4.917c-42.666,0 -72.208,-15.917 -72.208,-64l0,-171.75l-13.25,0Z" style="fill:#362d31;fill-rule:nonzero;"/><path d="M2691.88,723c-3.183,-0.033 -6.225,-1.312 -8.479,-3.563c-2.25,-2.249 -3.529,-5.295 -3.563,-8.479l0,-351.75c0.046,-3.175 1.33,-6.208 3.58,-8.45c2.249,-2.245 5.287,-3.516 8.462,-3.55l14.792,0c3.633,0.067 7.179,1.117 10.258,3.042c3.083,1.921 5.583,4.642 7.242,7.875l118.166,242.333c13.167,26.092 24.313,53.159 33.334,80.959l1.083,-0c-3.079,-30.359 -4.471,-60.863 -4.167,-91.375l0,-230.834c0.034,-3.179 1.313,-6.22 3.567,-8.462c2.254,-2.246 5.296,-3.517 8.475,-3.538l8.333,0c3.175,0.034 6.209,1.309 8.45,3.55c2.242,2.246 3.517,5.28 3.55,8.45l0,351.75c-0.021,3.18 -1.291,6.225 -3.537,8.475c-2.242,2.255 -5.284,3.534 -8.463,3.567l-14.25,0c-3.629,-0.071 -7.175,-1.125 -10.254,-3.046c-3.079,-1.921 -5.583,-4.641 -7.246,-7.871l-113.75,-231.416c-15.07,-29.379 -27.791,-59.904 -38.041,-91.292l-1.084,0c3.034,33.829 4.313,67.792 3.834,101.75l-0,219.917c-0.021,3.187 -1.296,6.237 -3.55,8.491c-2.254,2.255 -5.304,3.53 -8.492,3.55l-8.25,-0.083Z" style="fill:#8eb533;fill-rule:nonzero;"/><path d="M3009.71,597.167c1.084,79.166 22.417,103.416 71.625,103.416c19.675,0.404 38.988,-5.333 55.25,-16.416c2.717,-1.875 6.046,-2.638 9.309,-2.134c3.262,0.5 6.208,2.234 8.233,4.842l3.25,3.833c0.946,1.242 1.625,2.663 2,4.175c0.375,1.517 0.433,3.092 0.175,4.63c-0.254,1.537 -0.825,3.008 -1.675,4.316c-0.846,1.309 -1.954,2.434 -3.25,3.296c-19.667,13.667 -42.125,21.333 -73.292,21.333c-62.5,0 -106.125,-35 -106.125,-135.666c0,-99.542 42.125,-136.75 100,-136.75c60.709,-0 93.542,38.333 93.542,127.458l0,7.125c0.046,0.825 -0.075,1.654 -0.354,2.429c-0.279,0.779 -0.713,1.496 -1.271,2.104c-0.558,0.609 -1.233,1.1 -1.983,1.446c-0.755,0.346 -1.567,0.538 -2.392,0.563l-153.042,-0Zm0.542,-25.667l124.708,0c0,-66.667 -19.708,-88.667 -60.166,-88.667c-36.667,0 -60.75,20.292 -64.542,88.667Z" style="fill:#8eb533;fill-rule:nonzero;"/><path d="M3239.96,488.333l-19.708,0c-3.187,-0.041 -6.233,-1.329 -8.483,-3.587c-2.25,-2.258 -3.529,-5.309 -3.559,-8.496l0,-2.667c0.03,-3.187 1.309,-6.233 3.559,-8.491c2.25,-2.259 5.296,-3.546 8.483,-3.592l19.708,-0l0,-56.875c0.005,-3.383 1.142,-6.671 3.221,-9.342c2.084,-2.671 4.996,-4.575 8.279,-5.408l9.292,-2.208c1.379,-0.238 2.792,-0.18 4.146,0.175c1.354,0.35 2.621,0.987 3.708,1.866c1.088,0.879 1.975,1.984 2.604,3.234c0.63,1.25 0.984,2.62 1.042,4.016l0,64.542l42.625,-0c3.192,0.033 6.25,1.317 8.508,3.575c2.259,2.262 3.542,5.317 3.575,8.508l0,2.667c-0.033,3.196 -1.316,6.25 -3.575,8.508c-2.258,2.259 -5.316,3.546 -8.508,3.575l-42.625,0l0,189.25c0,15.875 7.083,24.084 21.875,24.084c6.704,0.171 13.379,-0.946 19.667,-3.292c3.054,-0.875 6.333,-0.575 9.179,0.842c2.846,1.421 5.058,3.854 6.196,6.825c0.658,1.579 0.991,3.271 0.991,4.979c-0.004,1.708 -0.35,3.4 -1.012,4.975c-0.663,1.571 -1.633,3 -2.85,4.196c-1.221,1.195 -2.667,2.137 -4.254,2.766c-9.392,3.75 -19.434,5.604 -29.542,5.459c-29.5,-0 -52.5,-13.667 -52.5,-49.25l-0.042,-190.834Z" style="fill:#8eb533;fill-rule:nonzero;"/><path d="M1228.68,533.571c-257.225,-139.563 -533.467,-16.921 -584.167,205.742c0,-0 452.163,-65.459 584.167,-205.742Z" style="fill:#8eb533;fill-rule:nonzero;"/><path d="M796.679,16.667c-80.342,32.04 -162.662,139.681 -205.683,281.043c-37.079,121.861 -36,238.861 -3.658,314.523c14.458,-48 28.737,-88.62 49.679,-128.221c9,-17.041 22.379,-8.879 22.021,4.68c-0.3,11.52 -3,33.362 -13.2,81.421c-3.48,16.079 -7.8,37.199 -12.6,61.32c70.679,-43.141 139.441,-141.662 177.42,-266.704c43.08,-141.48 34.68,-276.722 -14.279,-348.002" style="fill:#8eb533;fill-rule:nonzero;"/><path d="M548.75,281.513c2.938,-9.96 6,-19.62 9.658,-29.281c-90.779,-106.861 -201.42,-170.462 -284.342,-170.102c-18.72,84.361 24,213.003 116.701,328.145c38.962,49.008 85.2,91.763 137.104,126.779c-13.2,-71.4 -7.621,-162.062 20.879,-255.541Z" style="fill:#8eb533;fill-rule:nonzero;"/><path d="M16.667,533.575c257.223,-139.563 533.466,-16.921 584.166,205.8c0,0 -452.165,-65.521 -584.166,-205.8Z" style="fill:#8eb533;fill-rule:nonzero;"/><path d="M1371.33,245.833c4.667,0 8.667,-4 8.667,-8.666l0,-81.334l40.333,0c45.667,0 66.334,-26.333 66.334,-71c-0,-44 -23.334,-68.666 -70,-68.666l-58.667,-0c-4.667,-0 -8.667,4 -8.667,8.666l0,212.334c0,4.666 4,8.666 8.667,8.666l13.333,0Zm8.667,-203.333l35,0c28,0 39.333,11.333 39.333,44c0,32.333 -12.333,43.333 -38,43.333l-36.333,0l-0,-87.333Zm257.275,119.667c0,-62.667 -28,-87.667 -68.667,-87.667c-40.666,0 -67.666,25 -67.666,87.667c-0,62.666 27.666,88 68.333,88c40.667,-0 68,-25.334 68,-88Zm-105.667,-0c0,-51.667 12,-65 37.334,-65c25.333,-0 37.666,13.666 37.666,65.333c0,51.333 -12,65 -37.333,65c-25.333,0 -37.667,-14 -37.667,-65.333Zm181.529,83.666c5,0 9.667,-3.666 10.667,-8.333l20.667,-80.667c3.666,-14 9.333,-45.333 9.666,-48.333l0.334,-0c2,10 6,32.667 10,48.333l20.666,80.667c1.334,4.667 6,8.333 11,8.333l11.334,0c5,0 9.666,-3.333 11,-8.333l39.333,-150.333c1.333,-4 -2,-8.334 -6.333,-8.334l-11.667,0c-5.004,0 -9.667,3.667 -10.667,8.334l-18.666,78.666c-3.338,14.334 -8,41.334 -8.667,46l-0.667,0c-0.666,-4 -5,-29.333 -9.333,-47l-19.333,-77.666c-1,-4.667 -5.667,-8.334 -10.667,-8.334l-12.667,0c-5,0 -9.666,3.667 -10.666,8.334l-20.667,80.333c-2.667,10.333 -6.333,30.667 -8,44.333l-0.667,0c-1.666,-12 -5,-33 -8.333,-47.333l-18.333,-77.333c-1,-4.667 -5.667,-8.334 -10.667,-8.334l-13.333,0c-4.334,0 -7.667,4.334 -6.334,8.334l38.667,150.333c1.333,4.667 6,8.333 11,8.333l11.333,0Zm276.421,-9.666c4,-2.667 4.667,-8.334 2,-12l-5.333,-7c-2.667,-3.667 -8.333,-4.667 -12.333,-1.667c-8.667,6 -18,10.333 -32.334,10.333c-27.666,0 -37.666,-11.333 -38.333,-57l91.667,0c3,0 5.333,-2.333 5.333,-5.333l-0,-6c-0,-60.333 -22.667,-83 -62.333,-83c-39.334,0 -65.334,24.333 -65.334,87.667c0,62.666 24.667,88 68.334,88c21,-0 35,-4.334 48.666,-14Zm-19.666,-89l-66.334,-0c2.334,-40 14.334,-50 33.667,-50c24,-0 32.667,11.666 32.667,50Zm81.395,98.666c4.667,0 8.667,-4 8.667,-8.666l0,-114c12.334,-11.334 22.667,-17 38,-17c1.667,-0 3.667,-0 5.333,0.333c2.667,0.333 5.001,-1.667 5.334,-4l2.333,-23.333c0.333,-1.334 -1,-2.667 -2.333,-3c-1,-0.334 -2.333,-0.334 -3.333,-0.334c-19.334,0 -34.667,11.334 -47,26.667l-3,-15c-1,-5 -5.334,-8.667 -10.334,-8.667l-5,0c-4.666,0 -8.666,4 -8.666,8.667l-0,149.667c-0,4.666 4,8.666 8.666,8.666l11.333,0Zm188.467,-9.666c4,-2.667 4.667,-8.334 2,-12l-5.333,-7c-2.667,-3.667 -8.333,-4.667 -12.333,-1.667c-8.667,6 -18,10.333 -32.334,10.333c-27.666,0 -37.666,-11.333 -38.333,-57l91.667,0c3,0 5.333,-2.333 5.333,-5.333l-0,-6c-0,-60.333 -22.667,-83 -62.333,-83c-39.334,0 -65.334,24.333 -65.334,87.667c0,62.666 24.667,88 68.334,88c21,-0 35,-4.334 48.666,-14Zm-19.666,-89l-66.334,-0c2.334,-40 14.334,-50 33.667,-50c24,-0 32.667,11.666 32.667,50Zm155.729,81.333l2.333,9c1.333,5 6,8.333 11,8.333l5,0c4.667,0 8.667,-4 8.667,-8.666l-0,-224c-0,-4.667 -4,-8.667 -8.667,-8.667l-11.333,-0c-4.667,-0 -8.667,4 -8.667,8.667l0,81.666c-10.667,-10.333 -26,-20.333 -44.333,-20.333c-39,0 -57.334,26.333 -57.334,89c0,68.667 25,86.667 57,86.667c17.667,-0 33.667,-7.667 46.334,-21.667Zm-72.667,-67c0,-53.667 10.333,-62.333 34,-62.333c14,-0 27.333,8.666 37,18l0,90.333c-12,11.333 -23.333,18 -39.667,18c-22.666,0 -31.333,-10.333 -31.333,-64Zm336.4,-0.333c0,-68.667 -25,-86.667 -57,-86.667c-17.667,0 -32.667,9 -44.667,21.667l0,-83c0,-4.667 -4,-8.667 -8.666,-8.667l-11.334,-0c-4.666,-0 -8.666,4 -8.666,8.667l-0,224c-0,4.666 4,8.666 8.666,8.666l5,0c5,0 9.667,-3.333 11,-8.333l2.334,-7.667c9.666,11 27.666,20.334 46,20.334c39,-0 57.333,-26.334 57.333,-89Zm-101.667,48l0,-90.334c12,-11.333 23.334,-19.666 39.667,-19.666c22.667,-0 31.333,10.333 31.333,64c0,53.666 -10.333,62.333 -34,62.333c-14,0 -27.333,-7 -37,-16.333Zm199.346,42l52.667,-164c1.333,-4.334 -1.667,-8.334 -6,-8.334l-12.333,0c-5,0 -9.667,3.334 -11.334,8.334l-27,90c-5,16.333 -8,33.666 -10.333,45.666l-0.333,0c-2.334,-12.666 -6.334,-32.333 -10,-45.666l-25.667,-90c-1.333,-5 -6,-8.334 -11,-8.334l-14,0c-4.333,0 -7.333,4 -6,8.334l47.333,152.333c1.334,3.667 4.667,6.333 8.667,6.333l0.333,0c-8.333,27.667 -17,36.667 -37.666,43.334c-4.667,1.333 -7.334,6.333 -6,11l1.666,6.333c1.334,4.667 6,7.667 10.667,6.333c28.333,-6.666 41.333,-16.666 56.333,-61.666Z" style="fill:#362d31;fill-rule:nonzero;"/></svg>